<svg width="30" height="32" viewBox="0 0 30 32" fill="none" xmlns="http://www.w3.org/2000/svg">
<path d="M19.2727 15.5033C19.2727 17.9905 17.1359 17.0473 14.5 17.0473C11.8641 17.0473 9.72727 17.9905 9.72727 15.5033C9.72727 13.0162 11.8641 11 14.5 11C17.1359 11 19.2727 13.0162 19.2727 15.5033Z" fill="#D9D9D9"/>
<path d="M17.2273 20.8736C17.2273 24.4962 16.0717 25.5197 14.5 25.5197C12.9283 25.5197 11.7727 25.1794 11.7727 21.5568C11.8913 19.5446 12.247 15.1484 14.5 15.1484C16.753 15.1484 16.3972 16.7883 17.2273 20.8736Z" fill="#D9D9D9"/>
<path d="M12.6154 20.9802C12.7214 22.4826 11.4672 22.1112 9.96954 22.3558C8.47192 22.6004 7.29807 23.3684 7.19202 21.866C7.08597 20.3636 8.21406 18.9473 9.71169 18.7027C11.2093 18.4581 12.5093 19.4778 12.6154 20.9802Z" fill="#D9D9D9"/>
<path d="M11.3869 23.0055C11.4784 24.3022 10.9298 24.7624 10.1484 24.89C9.36705 25.0176 8.78398 24.9897 8.69245 23.693C8.85265 22.5835 8.76634 21.3606 9.88638 21.1777C11.0064 20.9948 10.871 21.6106 11.3869 23.0055Z" fill="#D9D9D9"/>
<path d="M21.7119 21.4674C21.5527 23.2388 20.3861 22.3121 18.8726 21.9975C17.359 21.6829 16.0717 22.0996 16.2308 20.3281C16.39 18.5567 17.7459 17.3757 19.2595 17.6903C20.773 18.0049 21.871 19.6959 21.7119 21.4674Z" fill="#D9D9D9"/>
<path d="M20.1506 23.3094C20.0132 24.8383 19.3938 25.1496 18.6042 24.9855C17.8145 24.8213 17.2468 24.557 17.3841 23.0282C17.7359 21.8149 17.8654 20.3731 18.9974 20.6084C20.1293 20.8436 19.8884 21.4986 20.1506 23.3094Z" fill="#D9D9D9"/>
<path d="M30 2.346L29 3.59501H5.5L0.537924 30.817H24.0519L29 3.59501L30 2.346L24.7608 32H0L5 2.34598L30 2.346Z" fill="#D9D9D9"/>
<path d="M30 -1.76832e-05L29 1.70134H6.5L0.537924 30.7451H24.0519L29 1.70134L30 -1.76832e-05L24.7608 32H0L6.06388 0L30 -1.76832e-05Z" fill="#D9D9D9"/>
<path d="M30 4.85745L29 6.1199H5L1.01639 30.7376H24.3934L29 6.1199L30 4.85745L25.4098 32H0L4 4.85745H30Z" fill="#D9D9D9"/>
</svg>
