<svg width="23" height="18" viewBox="0 0 23 18" fill="none" xmlns="http://www.w3.org/2000/svg">
<path d="M18.8182 5.27031C18.8182 8.18102 15.5417 7.07728 11.5 7.07728C7.45828 7.07728 4.18182 8.18102 4.18182 5.27031C4.18182 2.3596 7.45828 0 11.5 0C15.5417 0 18.8182 2.3596 18.8182 5.27031Z" fill="#D9D9D9"/>
<path d="M15.6818 11.5553C15.6818 15.7948 13.91 16.9927 11.5 16.9927C9.09003 16.9927 7.31818 16.5945 7.31818 12.3549C7.5 10 8.04545 4.85507 11.5 4.85507C14.9545 4.85507 14.4091 6.77417 15.6818 11.5553Z" fill="#D9D9D9"/>
<path d="M8.61027 11.68C8.77288 13.4383 6.84965 13.0036 4.5533 13.2899C2.25694 13.5761 0.45704 14.4749 0.29443 12.7167C0.131821 10.9584 1.86156 9.30093 4.15792 9.01468C6.45427 8.72842 8.44766 9.92174 8.61027 11.68Z" fill="#D9D9D9"/>
<path d="M6.72654 14.0502C6.86688 15.5677 6.02568 16.1063 4.82758 16.2557C3.62948 16.405 2.73543 16.3723 2.59509 14.8547C2.84073 13.5563 2.70838 12.1252 4.42578 11.9111C6.14318 11.697 5.93554 12.4177 6.72654 14.0502Z" fill="#D9D9D9"/>
<path d="M22.5582 12.2502C22.3142 14.3233 20.5254 13.2387 18.2046 12.8705C15.8838 12.5024 13.91 12.99 14.154 10.9169C14.398 8.84374 16.4771 7.46158 18.7979 7.82975C21.1186 8.19793 22.8022 10.177 22.5582 12.2502Z" fill="#D9D9D9"/>
<path d="M20.1642 14.4058C19.9536 16.1951 19.0039 16.5594 17.793 16.3673C16.5822 16.1753 15.7118 15.8659 15.9223 14.0767C16.4617 12.6568 16.6603 10.9694 18.3959 11.2448C20.1316 11.5201 19.7622 12.2866 20.1642 14.4058Z" fill="#D9D9D9"/>
</svg>
