<svg width="36" height="32" viewBox="0 0 36 32" fill="none" xmlns="http://www.w3.org/2000/svg">
<path d="M19.2727 15.8845C19.2727 18.0299 17.1359 17.2164 14.5 17.2164C11.8641 17.2164 9.72727 18.0299 9.72727 15.8845C9.72727 13.7392 11.8641 12 14.5 12C17.1359 12 19.2727 13.7392 19.2727 15.8845Z" fill="#D9D9D9"/>
<path d="M17.2273 20.5169C17.2273 23.6417 16.0717 24.5246 14.5 24.5246C12.9283 24.5246 11.7727 24.231 11.7727 21.1062C11.8913 19.3705 12.247 15.5784 14.5 15.5784C16.753 15.5784 16.3972 16.9929 17.2273 20.5169Z" fill="#D9D9D9"/>
<path d="M12.6154 20.6088C12.7214 21.9048 11.4672 21.5844 9.96954 21.7954C8.47192 22.0064 7.29807 22.6689 7.19202 21.3729C7.08597 20.0769 8.21406 18.8553 9.71169 18.6443C11.2093 18.4333 12.5093 19.3129 12.6154 20.6088Z" fill="#D9D9D9"/>
<path d="M11.3869 22.3559C11.4784 23.4744 10.9298 23.8713 10.1484 23.9814C9.36705 24.0915 8.78398 24.0674 8.69245 22.9489C8.85265 21.9918 8.76634 20.937 9.88638 20.7792C11.0064 20.6214 10.871 21.1526 11.3869 22.3559Z" fill="#D9D9D9"/>
<path d="M21.7119 21.0291C21.5527 22.5571 20.3861 21.7577 18.8726 21.4863C17.359 21.215 16.0717 21.5744 16.2308 20.0464C16.39 18.5183 17.7459 17.4996 19.2595 17.771C20.773 18.0423 21.871 19.501 21.7119 21.0291Z" fill="#D9D9D9"/>
<path d="M20.1506 22.618C20.0132 23.9368 19.3938 24.2053 18.6042 24.0638C17.8145 23.9222 17.2468 23.6942 17.3841 22.3754C17.7359 21.3288 17.8654 20.0851 18.9974 20.2881C20.1293 20.491 19.8884 21.056 20.1506 22.618Z" fill="#D9D9D9"/>
<path d="M32.3446 2.65695L31.278 3.87842H6.21131L6 5L5 5.5L0.91843 30.5L24.5 31L25.5 28.5H26.5L31.278 3.87842L32.3446 2.65695L27 29.5H25.5V31L0.344645 31.6569L4 5L5 5.5L5.5 3L32.3446 2.65695Z" fill="#D9D9D9"/>
<path d="M35.1096 1.76832e-05L33.5 1.5H8L7.5 3.5H6L5 6L1.21929 30.7451H25.1096L25.6096 29H26.6096L26.1096 28.5H27.1096L27.6096 26H28.6096L33.5 1.5L35.1096 1.76832e-05L29.6096 26.5H29.1096H27.5096L27 29.5H25.5V32L24.6096 32H0.609647L4 5L5 5.5L5.5 3H7L7.6825 1.76832e-05H35.1096Z" fill="#D9D9D9"/>
<path d="M30 4.85745L29 6.1199H5L1.01639 30.7376H24.3934L29 6.1199L30 4.85745L25.4098 32H0L4 4.85745H30Z" fill="#D9D9D9"/>
</svg>
