<svg width="30" height="26" viewBox="0 0 30 26" fill="none" xmlns="http://www.w3.org/2000/svg">
<path d="M20.2727 12.5672C20.2727 14.5372 18.1359 13.7902 15.5 13.7902C12.8641 13.7902 10.7273 14.5372 10.7273 12.5672C10.7273 10.5971 12.8641 9 15.5 9C18.1359 9 20.2727 10.5971 20.2727 12.5672Z" fill="#D9D9D9"/>
<path d="M18.2273 16.821C18.2273 19.6905 17.0717 20.5013 15.5 20.5013C13.9283 20.5013 12.7727 20.2317 12.7727 17.3622C12.8913 15.7683 13.247 12.286 15.5 12.286C17.753 12.286 17.3972 13.585 18.2273 16.821Z" fill="#D9D9D9"/>
<path d="M13.6154 16.9055C13.7214 18.0956 12.4672 17.8013 10.9695 17.9951C9.47192 18.1888 8.29807 18.7972 8.19202 17.6071C8.08597 16.417 9.21406 15.2952 10.7117 15.1015C12.2093 14.9077 13.5093 15.7154 13.6154 16.9055Z" fill="#D9D9D9"/>
<path d="M12.3869 18.5097C12.4784 19.5369 11.9298 19.9014 11.1484 20.0025C10.3671 20.1036 9.78398 20.0814 9.69245 19.0543C9.85265 18.1754 9.76634 17.2068 10.8864 17.0619C12.0064 16.917 11.871 17.4048 12.3869 18.5097Z" fill="#D9D9D9"/>
<path d="M22.7119 17.2914C22.5527 18.6945 21.3861 17.9604 19.8726 17.7112C18.359 17.4621 17.0717 17.7921 17.2308 16.3889C17.39 14.9857 18.7459 14.0502 20.2595 14.2994C21.773 14.5486 22.871 15.8882 22.7119 17.2914Z" fill="#D9D9D9"/>
<path d="M21.1506 18.7505C21.0132 19.9615 20.3938 20.2081 19.6042 20.0781C18.8145 19.9481 18.2468 19.7387 18.3841 18.5277C18.7359 17.5666 18.8654 16.4246 19.9974 16.6109C21.1293 16.7973 20.8884 17.3161 21.1506 18.7505Z" fill="#D9D9D9"/>
<path d="M30 2.51064L29 3.5H5.5L0.537924 25.0629H24.0519L29 3.5L30 2.51064L24.7608 26H0L5 2.51062L30 2.51064Z" fill="#D9D9D9"/>
<path d="M30 0.65233L29 2H6.5L0.537924 25.006H24.0519L29 2L30 0.65233L24.7608 26H0L6.06388 0.652344L30 0.65233Z" fill="#D9D9D9"/>
<path d="M30 4.5L29 5.5H5L1.01639 25H24.3934L29 5.5L30 4.5L25.4098 26H0L4 4.5H30Z" fill="#D9D9D9"/>
</svg>
